<?xml version="1.0" encoding="UTF-8" standalone="no"?>
<svg width="612px" height="332px" viewBox="0 0 612 332" version="1.1" xmlns="http://www.w3.org/2000/svg" xmlns:xlink="http://www.w3.org/1999/xlink">
    <!-- Generator: Sketch 50.2 (55047) - http://www.bohemiancoding.com/sketch -->
    <title>Logo</title>
    <desc>Created with Sketch.</desc>
    <defs></defs>
    <g id="Page-1" stroke="none" stroke-width="1" fill="none" fill-rule="evenodd">
        <g id="Logo">
            <g id="WhiteHouse">
                <g id="Group-6" transform="translate(0.000000, 111.000000)" fill="#231F20">
                    <path d="M195.2479,187.2141 L217.1139,187.2141 C215.1169,184.3171 219.4379,179.6761 213.7329,179.0781 C207.7159,178.4481 201.5829,178.9371 195.2479,178.9371 L195.2479,187.2141 Z M327.9139,187.2991 L349.1339,187.2991 L349.1339,178.9111 C344.1749,178.9111 339.5789,178.9101 334.9839,178.9111 C327.0969,178.9141 327.0969,178.9151 327.9139,187.2991 Z M261.2179,187.3311 L282.7619,187.3311 L282.7619,179.3151 L261.2179,179.3151 L261.2179,187.3311 Z M394.3369,187.2481 L415.6839,187.2481 L415.6839,179.1971 L394.3369,179.1971 L394.3369,187.2481 Z M199.4349,175.0701 L212.2819,175.0701 C212.2819,173.3191 212.3039,171.8671 212.2789,170.4161 C211.8599,145.9411 211.4449,121.4661 211.0049,96.9911 C210.8309,87.3351 210.3079,77.6761 210.4699,68.0271 C210.6259,58.6721 208.0289,49.1441 212.2349,40.0111 L199.6789,40.0111 C200.4149,42.9081 201.6629,45.4641 201.6199,47.9971 C200.9179,88.9541 200.0509,129.9091 199.2369,170.8651 C199.2109,172.1581 199.3539,173.4551 199.4349,175.0701 Z M412.0289,175.0801 C412.0289,172.9061 412.0579,171.1031 412.0249,169.3011 C411.3269,131.1561 410.5809,93.0111 409.9719,54.8641 C409.8939,49.9351 410.5229,44.9951 410.8299,39.9791 L399.0049,39.9791 C399.7919,42.7021 401.1209,45.1121 401.0859,47.5031 C400.5829,81.8201 399.8689,116.1351 399.2759,150.4511 C399.1359,158.5631 399.2549,166.6791 399.2549,175.0801 L412.0289,175.0801 Z M10.2899,211.7871 L184.6919,211.7871 L184.6919,198.6591 L10.2899,198.6591 L10.2899,211.7871 Z M426.3829,211.7371 L601.7299,211.7371 L601.7299,198.6671 L426.3829,198.6671 L426.3829,211.7371 Z M189.1429,217.3081 L422.1289,217.3081 L422.1289,193.5201 L189.1429,193.5201 L189.1429,217.3081 Z M10.2419,194.1311 L184.7359,194.1311 C185.0159,192.5471 185.2619,191.1511 185.5039,189.7761 C187.5479,189.5181 189.2969,189.2961 190.3809,189.1591 C193.8809,184.4801 187.1959,177.1851 195.7189,174.5211 C196.4869,133.5711 197.2579,92.5341 198.0289,51.4341 L10.2419,51.4341 L10.2419,194.1311 Z M425.9319,189.6771 C425.2239,194.3121 427.8109,194.3941 431.0109,194.3911 C486.3269,194.3281 541.6429,194.3531 596.9589,194.3451 C598.5479,194.3451 600.1369,194.1951 601.6089,194.1201 L601.6089,51.4661 L413.4859,51.4661 C413.4069,52.6081 413.3119,53.2551 413.3259,53.9001 C414.1239,93.0411 414.8939,132.1821 415.8529,171.3191 C415.8979,173.1371 417.6439,174.9131 418.5979,176.7091 C419.0699,176.5641 419.5419,176.4191 420.0139,176.2741 L420.0139,189.2491 C422.0299,189.3941 423.6499,189.5121 425.9319,189.6771 Z M611.9999,51.3861 C610.2519,51.2771 608.5039,51.1681 606.2829,51.0291 L606.2829,216.0271 L426.5229,216.0271 C426.1739,217.9641 425.9219,219.3581 425.6249,221.0001 L185.5159,221.0001 C185.2509,219.5521 184.9939,218.1531 184.6449,216.2471 L5.9059,216.2471 L5.9059,51.0121 C3.5299,51.1631 1.7649,51.2741 -0.0001,51.3861 C-0.0001,49.3861 -0.0001,47.3861 -0.0001,45.3861 L5.8669,45.3861 L5.8669,16.6141 L17.9549,16.6141 L17.9549,6.8261 L34.1029,6.8261 C34.2869,9.7431 34.4809,12.8151 34.6939,16.2071 L153.0839,16.2071 L153.0839,0.2271 L169.7679,0.2271 L169.7679,16.1111 C177.4479,17.4231 185.1009,15.2921 192.2209,17.3881 C192.1669,17.9701 192.1119,18.5531 192.0579,19.1351 L10.4459,19.1351 L10.4459,45.1491 L194.9109,45.1491 C194.7869,42.5681 194.6529,39.7891 194.4869,36.3551 C201.5859,36.3551 209.0659,34.3331 214.6009,36.7551 C228.2189,42.7141 241.9769,37.8951 255.5139,39.5561 C257.6039,39.8121 260.7579,40.9451 261.4109,37.0001 C261.4609,36.6971 262.5509,36.3901 263.1599,36.3851 C269.3239,36.3391 276.7529,34.1831 281.3599,36.8611 C288.3979,40.9541 295.0519,39.0481 301.8229,39.5271 C309.1189,40.0431 316.4809,39.7491 323.8079,39.5601 C325.0609,39.5271 326.2459,38.1731 327.5279,37.5651 C328.6289,37.0431 329.8139,36.3871 330.9759,36.3601 C336.1379,36.2401 341.3109,36.1941 346.4669,36.4271 C347.7419,36.4841 348.9379,37.7441 350.2219,38.3411 C351.3279,38.8551 352.5039,39.5761 353.6529,39.5851 C365.9829,39.6751 378.3139,39.6421 390.6449,39.6381 C391.3099,39.6381 392.2509,39.8701 392.5989,39.5261 C399.7589,32.4331 408.4489,38.4621 416.5519,35.8721 L416.5519,45.2921 L601.7349,45.2921 L601.7349,19.5981 L420.1499,19.5981 C420.0079,18.9351 419.8659,18.2731 419.7239,17.6111 C421.8509,17.2481 423.9659,16.7231 426.1089,16.5651 C428.5949,16.3831 431.1049,16.5231 433.6039,16.5231 C436.2479,16.5231 438.8909,16.5231 442.1759,16.5231 L442.1759,0.1791 L458.6139,0.1791 L458.6139,16.1931 L577.1769,16.1931 C577.3459,13.0561 577.5119,9.9821 577.6889,6.6841 L593.6579,6.6841 L593.6579,16.2781 L605.9669,16.2781 L605.9669,45.3861 L611.9999,45.3861 L611.9999,51.3861 Z" id="Fill-4"></path>
                </g>
                <path d="M418,127 C414.718289,132.112743 413.92956,137.816094 408.726945,142 C408.504303,138.370501 408.35155,135.872569 408.170841,132.915391 L202.217756,132.915391 C202.082973,135.41746 201.941202,138.062267 201.79943,140.709144 C198.36197,140.426769 195.448665,135.234381 194,127 L418,127 Z" id="Fill-9" fill="#231F20"></path>
                <polygon id="Fill-17" fill="#231F20" points="423 141 452 141 452 135 423 135"></polygon>
                <polygon id="Fill-19" fill="#231F20" points="469 141 498 141 498 135 469 135"></polygon>
                <polygon id="Fill-20" fill="#231F20" points="516 141 545 141 545 135 516 135"></polygon>
                <polygon id="Fill-21" fill="#231F20" points="66 141 95 141 95 135 66 135"></polygon>
                <polygon id="Fill-22" fill="#231F20" points="160 141 189 141 189 135 160 135"></polygon>
                <polygon id="Fill-23" fill="#231F20" points="113 140 142 140 142 135 113 135"></polygon>
                <polygon id="Fill-24" fill="#231F20" points="20 141 49 141 49 135 20 135"></polygon>
                <path d="M591.756285,135 C591.834515,136.608242 591.907729,138.096215 592,140 L562.450321,140 C562.322947,138.590341 562.18053,137.000746 562,135 L591.756285,135 Z" id="Fill-25" fill="#231F20"></path>
                <path d="M199.200202,286 C199.120558,284.384706 198.977198,283.089272 199.003082,281.796837 C199.813464,240.858728 200.677606,199.921619 201.37549,158.982511 C201.418299,156.449618 200.176842,153.895734 199.443118,151 L211.943307,151 C207.756003,160.12901 210.342455,169.652848 210.186152,179.003761 C210.025868,188.648546 210.545548,198.303327 210.718774,207.954109 C211.157814,232.418417 211.569974,256.883725 211.988107,281.348033 C212.012996,282.798399 211.991094,284.248765 211.991094,286 L199.200202,286 Z" id="Fill-37" fill="#FEFEFE"></path>
                <polygon id="Fill-38" fill="#FEFEFE" points="394 298 415 298 415 290 394 290"></polygon>
                <polygon id="Fill-39" fill="#FEFEFE" points="261 298 283 298 283 290 261 290"></polygon>
                <path d="M328.356378,298 C327.523107,290.004239 327.523107,290.003285 335.567179,290.000424 C340.254709,289.99947 344.94122,290.000424 350,290.000424 L350,298 L328.356378,298 Z" id="Fill-40" fill="#FEFEFE"></path>
                <path d="M195,297 L195,289.171097 C201.373822,289.171097 207.544407,288.70857 213.59828,289.304464 C219.338242,289.870089 214.990762,294.259837 217,297 L195,297 Z" id="Fill-41" fill="#FEFEFE"></path>
                <polygon id="Fill-43" fill="#231F20" points="569 279 586 279 586 246 569 246"></polygon>
                <polygon id="Fill-44" fill="#231F20" points="522 279 539 279 539 246 522 246"></polygon>
                <polygon id="Fill-45" fill="#231F20" points="428 279 445 279 445 246 428 246"></polygon>
                <polygon id="Fill-46" fill="#231F20" points="428 217 445 217 445 183 428 183"></polygon>
                <polygon id="Fill-47" fill="#231F20" points="522 217 539 217 539 183 522 183"></polygon>
                <polygon id="Fill-48" fill="#231F20" points="569 217 586 217 586 183 569 183"></polygon>
                <polygon id="Fill-49" fill="#231F20" points="475 217 492 217 492 183 475 183"></polygon>
                <polygon id="Fill-50" fill="#231F20" points="475 280 492 280 492 246 475 246"></polygon>
                <path d="M593,240 L564,240 C570.658117,230.745034 584.564965,230.588627 593,240" id="Fill-51" fill="#231F20"></path>
                <path d="M470,239.99897 C477.645519,230.774275 489.809952,230.560011 499,240 C489.018406,240 479.510725,240 470,239.99897" id="Fill-52" fill="#231F20"></path>
                <path d="M518,240 C529.983152,232.003472 533.161453,231.996529 545,240 L518,240 Z" id="Fill-53" fill="#231F20"></path>
                <path d="M451,240 L424,240 C434.892132,232.012884 438.549108,231.987126 451,240" id="Fill-54" fill="#231F20"></path>
                <polygon id="Fill-55" fill="#231F20" points="26 217 43 217 43 183 26 183"></polygon>
                <polygon id="Fill-56" fill="#231F20" points="72 217 89 217 89 183 72 183"></polygon>
                <polygon id="Fill-57" fill="#231F20" points="167 217 184 217 184 183 167 183"></polygon>
                <polygon id="Fill-58" fill="#231F20" points="166 279 183 279 183 246 166 246"></polygon>
                <polygon id="Fill-59" fill="#231F20" points="72 279 89 279 89 246 72 246"></polygon>
                <polygon id="Fill-60" fill="#231F20" points="26 280 43 280 43 246 26 246"></polygon>
                <polygon id="Fill-61" fill="#231F20" points="120 217 137 217 137 183 120 183"></polygon>
                <polygon id="Fill-62" fill="#231F20" points="120 280 137 280 137 246 120 246"></polygon>
                <path d="M20,240 C29.0991281,230.674883 38.4868183,230.658454 49,240 L20,240 Z" id="Fill-63" fill="#231F20"></path>
                <path d="M142,240 L114,240 C117.55204,231.951447 133.383177,229.464366 142,240" id="Fill-64" fill="#231F20"></path>
                <path d="M67,240 C79.4001629,231.997042 82.1137609,232.002958 94,240 L67,240 Z" id="Fill-65" fill="#231F20"></path>
                <path d="M189,240 L162,240 C170.679399,232.060408 175.145996,231.939819 189,240" id="Fill-66" fill="#231F20"></path>
                <path d="M308.885071,6.37537963 C308.571733,6.38534116 308.259396,6.39530269 307.946059,6.40526422 L307.946059,19.3811541 C308.259396,19.3642195 308.571733,19.3462887 308.885071,19.3293541 L308.885071,6.37537963 Z M307.490568,0 C306.959996,5.16604981 310.47979,4.97478842 313.947528,4.81241547 C318.259175,4.61119255 322.607863,3.91488155 326.871459,4.26851589 C333.545653,4.822377 335.337585,7.15138287 335.609878,13.7060701 C335.767048,17.4695363 336.067371,21.2280219 336.419751,26.8513059 C327.630277,16.7433408 317.147978,24.3121118 307.539621,20.8933144 C307.539621,29.7122575 307.539621,38.136724 307.539621,46.5611905 C307.539621,54.1967038 307.855962,61.8491517 307.421493,69.4597611 C307.162214,74.0221421 308.7269,76.0652521 312.961465,77.7208585 C347.817037,91.3462401 382.576505,105.214683 417.349988,119.047265 C418.972737,119.692772 420.453333,120.693906 422,121.528682 L421.372323,123 C419.64346,122.485985 417.863541,122.099478 416.19274,121.438032 C380.918718,107.471966 345.676729,93.4242154 310.346646,79.6005993 C308.047168,78.7010731 304.780647,78.6871269 302.481168,79.5796801 C267.593562,93.1343349 232.794051,106.915116 197.964507,120.618198 C195.904286,121.429067 193.762978,122.034728 191.659711,122.736019 C191.439474,122.267827 191.220237,121.799636 191,121.330447 C192.518637,120.43889 193.949179,119.327184 195.567924,118.687653 C230.371439,104.939745 265.170951,91.1788864 300.051549,77.6272201 C304.091904,76.0572829 305.472392,74.0868921 305.435352,69.6968455 C305.236138,46.466556 305.430347,23.2322818 305.48841,0 L307.490568,0 Z" id="Fill-7" fill="#231F20"></path>
                <path d="M203,122.299817 C229.761116,111.593096 256.515222,100.868245 283.288354,90.1907335 C290.858287,87.1721029 298.480289,82.0171642 306.087271,82.0000415 C313.507007,81.9829188 320.946769,87.2637597 328.364503,90.2541881 C353.247154,100.286073 378.123797,110.33206 403.00044,120.381068 C404.679643,121.058925 406.333814,121.800237 408,122.51234 C407.945929,123.007891 407.892859,123.504449 407.838788,124 C402.815197,123.345309 397.438141,123.632366 392.826089,121.881822 C365.405107,111.474244 338.115298,100.710112 310.905593,89.7515867 C306.760154,88.0816202 303.422774,88.3968793 299.525661,89.9389291 C272.407076,100.668816 245.289492,111.408775 218.018707,121.735775 C213.439699,123.469196 208.116714,123.217392 203.13718,123.883163 C203.09112,123.355381 203.04606,122.827599 203,122.299817" id="Fill-11" fill="#231F20"></path>
                <path d="M372.22333,97.2525203 L406.347956,97.2525203 C406.350947,96.6624047 406.352941,96.0732727 406.354935,95.4831571 L363,95.4831571 C363.016949,94.9884436 363.033898,94.4947135 363.051844,94 L409.548355,94 C410.344965,100.495205 411.121635,106.829112 412,114 C398.485543,108.747971 385.341974,103.640521 372.199402,98.5330711 C372.207378,98.1062208 372.215354,97.6793705 372.22333,97.2525203" id="Fill-13" fill="#231F20"></path>
                <path d="M204.204563,97.5874791 L238.247423,97.5874791 C238.326129,97.9279757 238.403839,98.2684722 238.482545,98.60995 C225.415347,103.70366 212.348149,108.79737 199,114 C199.748206,107.033068 200.430657,100.679423 201.147978,94 L247.910335,94 C247.940223,94.4621725 247.970112,94.9233638 248,95.3855363 C233.453327,96.4286135 218.771161,95.3158669 204.20257,96.0125601 C204.203566,96.5375331 204.203566,97.0625061 204.204563,97.5874791" id="Fill-15" fill="#231F20"></path>
                <path d="M307.938,6 L307.938,18.948223 C307.625,18.9651501 307.313,18.9830729 307,19 L307,6.02987132 C307.313,6.01991422 307.625,6.00995711 307.938,6" id="Fill-42" fill="#FEFEFE"></path>
            </g>
            <g id="BM" transform="translate(223.000000, 180.000000)" fill="#FFFFFF" font-family="StencilStd, Stencil Std" font-size="104" font-weight="bold">
                <text>
                    <tspan x="0.48" y="78">BM</tspan>
                </text>
            </g>
            <text id="BASSMINISTRY" font-family="StencilStd, Stencil Std" font-size="20" font-weight="bold" fill="#000000">
                <tspan x="230.12" y="325">BASSMINISTRY</tspan>
            </text>
        </g>
    </g>
</svg>