<?xml version="1.0" encoding="UTF-8" standalone="no"?>
<svg width="369px" height="306px" viewBox="0 0 369 306" version="1.1" xmlns="http://www.w3.org/2000/svg" xmlns:xlink="http://www.w3.org/1999/xlink">
    <!-- Generator: Sketch 50.2 (55047) - http://www.bohemiancoding.com/sketch -->
    <title>Logo</title>
    <desc>Created with Sketch.</desc>
    <defs></defs>
    <g id="Page-1" stroke="none" stroke-width="1" fill="none" fill-rule="evenodd">
        <g id="Artboard-1" transform="translate(-116.000000, -32.000000)">
            <g id="Logo" transform="translate(116.000000, 88.000000)">
                <g id="NewSpeaker" transform="translate(89.000000, 0.000000)">
                    <g id="Group" transform="translate(0.000000, 1.000000)">
                        <path d="M0.9674,101.8747 L0.9674,97.8747 C1.7144,96.8517 3.0984,96.9307 3.9464,96.1247 C4.3924,93.7037 1.4494,94.4097 0.9674,92.8747 L0.9674,86.8747 C1.7904,85.9557 1.9064,84.7207 2.4034,83.6527 C5.3984,77.8117 5.4524,71.1197 7.7794,65.0897 C11.6274,55.1237 16.4224,45.6567 22.6824,36.9737 C23.4634,35.9107 24.2054,34.8267 24.1884,33.4147 C24.5934,32.0237 25.3594,30.9457 26.7734,30.4407 C29.8274,30.3357 25.8504,28.4957 27.3594,28.0047 C31.3534,21.8177 37.5184,18.0967 43.4734,14.2777 C54.9144,6.9417 67.2274,1.8707 81.0564,1.3827 C82.4944,1.3907 83.2914,2.6697 84.5064,3.1217 C85.9554,3.3617 86.9944,2.5467 88.0484,1.7787 C88.3584,1.4837 88.6654,1.1827 88.9674,0.8747 L100.9674,0.8747 C102.9294,1.9327 105.0444,1.1207 107.0724,1.3767 C108.3624,1.4537 109.6774,1.1777 110.9404,1.6457 C111.1134,4.6967 109.2854,2.9267 108.6444,3.1257 C115.2364,1.9937 121.3244,5.4867 127.7794,7.3957 C133.5294,9.7807 139.1534,12.4497 144.2914,15.9797 C146.1634,17.2657 148.0284,17.8987 150.2264,17.8027 C154.7744,19.3647 159.1344,21.1577 160.4844,26.4957 C159.7084,28.7597 160.5764,30.5317 162.1814,32.0807 C162.2454,32.7447 162.5504,32.3007 162.4494,32.1607 C161.3544,30.6417 161.4524,29.4687 163.6764,29.2677 C165.6144,29.5497 167.0324,30.7417 168.1774,32.1517 C180.4584,47.2767 188.1914,64.3307 189.9664,83.8867 C189.9044,85.3907 190.1314,86.9147 189.6804,88.3937 C188.9214,89.7107 187.7024,89.4617 186.5184,89.3257 C185.4744,89.1697 184.4244,88.9997 183.4294,89.5707 C181.5854,92.7627 181.7824,93.0427 186.0774,93.3267 C187.3134,93.1587 188.5614,92.8827 189.6154,93.8737 C191.7204,98.9137 190.1994,104.0847 189.8574,109.1227 C188.4644,129.6277 179.0224,146.5497 165.6424,161.5887 C164.8614,162.4667 163.9244,163.1657 162.7604,163.4827 C161.0594,163.7827 160.0044,162.8367 158.9784,161.6417 C157.8664,160.3457 156.2744,159.9337 155.0934,161.2147 C154.1574,162.2297 154.4544,163.7367 155.5764,164.7797 C156.6954,165.8197 157.8464,166.8107 157.0784,168.5887 C150.9504,175.8107 142.4804,179.5117 134.2714,183.5047 C125.0134,188.0067 115.0904,189.9317 104.8134,190.2277 C87.9354,190.7137 71.1354,190.7757 55.4504,183.0667 C44.1734,177.5247 33.2964,171.4507 25.7064,160.9537 C24.7894,157.8907 24.1304,154.6997 21.6494,152.3617 C15.1954,143.7507 10.6144,134.1767 7.0594,124.0777 C6.3454,122.8867 5.0844,122.2137 4.2394,121.1347 C3.9554,120.7257 3.7524,120.2847 3.6174,119.8067 C2.4434,115.8207 1.9874,111.7447 1.9544,107.6017 C1.9384,105.6507 2.3204,103.6057 0.9674,101.8747" id="Fill-1" fill="#383838"></path>
                        <path d="M5.0059,120.8564 C1.9619,117.0574 3.3569,111.8774 0.9669,107.8744 L0.9669,101.8744 C2.2279,101.9894 2.6149,102.9434 2.6109,103.9334 C2.5889,109.6954 4.4169,115.1874 5.0059,120.8564" id="Fill-8" fill="#DCDCDB"></path>
                        <path d="M0.9674,92.8747 C2.5444,93.0277 4.3094,92.3847 5.6214,93.7107 C7.5184,95.6297 7.9274,97.3197 4.6184,98.1017 C3.7454,96.6667 2.1854,97.2807 0.9674,96.8747 L0.9674,92.8747 Z" id="Fill-10" fill="#B0AFAF"></path>
                        <path d="M0.9674,96.8747 C2.2204,96.4537 2.4464,93.9467 4.3714,95.0347 C5.7234,95.7987 4.8024,97.0467 4.6194,98.0997 C3.3384,99.0337 2.1844,97.9527 0.9674,97.8747 L0.9674,96.8747 Z" id="Fill-12" fill="#494848"></path>
                        <path d="M106.9674,0.8747 C106.8394,1.2047 106.8514,1.5297 107.0034,1.8497 C104.9104,2.0277 102.7844,2.4087 100.9674,0.8747 L106.9674,0.8747 Z" id="Fill-14" fill="#726F6E"></path>
                        <path d="M83.8745,1.6097 C83.9045,1.3647 83.9355,1.1197 83.9675,0.8747 L88.9675,0.8747 C88.9985,1.2017 88.9545,1.5187 88.8365,1.8257 C88.4155,2.3657 87.8715,2.7137 87.2035,2.8677 C86.3145,3.1017 85.4385,3.1677 84.5995,2.6867 C84.2195,2.4217 83.9715,2.0657 83.8745,1.6097" id="Fill-16" fill="#C0BEBE"></path>
                        <path d="M0.9674,83.8747 C1.2454,83.6207 1.5274,83.6147 1.8154,83.8567 C2.2214,83.5017 2.6594,83.4567 3.1304,83.7217 C3.3744,84.1997 3.3274,84.6467 2.9904,85.0637 C2.6734,86.0667 1.8214,86.4717 0.9674,86.8747 L0.9674,83.8747 Z" id="Fill-18" fill="#969292"></path>
                        <path d="M32.1198,120.8675 C28.9218,113.4205 27.0118,105.6875 26.9768,97.5455 C26.9718,96.3575 26.6398,94.6805 28.8468,95.7995 C29.6758,95.1155 30.5648,94.5895 31.7048,94.7275 C32.2368,94.8025 32.7308,94.9855 33.1918,95.2595 C34.0558,95.9075 34.6278,96.7745 35.0448,97.7555 C35.4778,98.9525 35.3468,100.2345 35.6028,101.4595 C35.7108,101.9285 35.7538,102.4075 35.7658,102.8855 C35.6448,105.2585 36.5298,107.3905 37.3968,109.5255 C40.1768,119.1695 46.2428,126.9075 52.1748,134.6815 C54.4148,137.6175 58.2288,138.6965 60.9998,141.0845 C61.9978,141.9445 62.8078,141.2995 63.5938,140.6025 C66.5478,137.9855 69.2568,139.1845 71.4378,141.5465 C73.7628,144.0655 76.2708,144.8495 79.4588,143.7645 C80.0848,143.5515 80.7778,143.3235 81.4128,143.4335 C88.8628,144.7285 96.2598,143.4885 103.6758,143.0105 C106.7758,144.9915 109.4948,148.1245 113.8358,146.3605 C115.8288,146.9375 116.0878,148.9065 117.0228,150.3325 C117.7158,151.1225 118.7158,151.6125 119.2308,152.5775 C119.3698,153.0095 119.2698,153.3885 118.9668,153.7205 C97.3918,165.3175 68.9178,163.2855 49.7948,146.0825 C44.3418,141.2875 39.9718,135.6005 35.9688,129.5785 C35.0028,128.1255 34.1868,126.8555 34.7848,125.0955 C34.4128,123.3635 32.0788,122.8625 32.1198,120.8675" id="Fill-20" fill="#C7C7C7"></path>
                        <path d="M55.7904,38.8068 C72.8644,25.4078 101.4604,24.0658 121.0894,35.7438 C121.0184,35.9358 120.9474,36.1288 120.8804,36.3238 C120.1884,37.3518 118.6624,37.4428 118.1964,38.7258 C117.4814,39.8158 117.9874,41.3578 116.8724,42.3078 C116.4354,42.5528 115.9724,42.6908 115.4774,42.7548 C108.9384,41.6258 102.7384,39.3028 96.0464,38.4508 C85.2454,37.0768 75.6054,39.7438 66.0704,44.0268 C64.2584,44.8398 62.5674,46.0028 60.4534,45.9208 C59.0894,45.7508 58.1004,45.0858 57.6334,43.7528 C56.9474,42.4928 60.4244,40.2998 56.7194,39.7098 C56.3194,39.4978 56.0134,39.1948 55.7904,38.8068" id="Fill-22" fill="#9D9D9D"></path>
                        <path d="M118.9667,153.7204 C118.9717,153.4744 118.9777,153.2294 118.9857,152.9834 C117.5317,151.5184 115.4527,150.4304 115.8787,147.8304 C115.7597,147.0974 115.8457,146.3934 116.1507,145.7154 C123.6927,139.3504 130.0107,131.6824 137.6477,125.4074 C140.7427,125.1494 141.9997,128.6494 144.8367,128.9334 C139.8077,139.9474 130.7997,146.9724 120.7437,152.9394 C120.1917,153.2674 119.5607,153.4634 118.9667,153.7204" id="Fill-24" fill="#C7C7C7"></path>
                        <path d="M154.8149,94.9431 C155.0249,106.0121 151.9369,116.2611 147.0989,126.0811 C146.6359,127.0211 146.0799,127.7571 144.9829,127.9191 C140.1069,130.1111 140.1109,125.8501 138.8299,123.2791 C139.3079,118.4371 142.3129,114.4951 143.6069,109.9401 C143.9379,107.3031 145.8159,105.0621 145.5529,102.2701 C145.7379,100.6241 146.6079,99.1111 146.4679,97.4031 C146.5919,95.6721 146.2059,93.8731 147.1659,92.2611 C147.4729,91.8751 147.8739,91.6231 148.3529,91.5041 C150.4719,92.7071 151.7659,95.4741 154.8149,94.9431" id="Fill-26" fill="#C7C6C6"></path>
                        <path d="M121.0896,35.7436 C129.6756,40.3176 136.8916,46.3936 141.9926,54.7926 C140.1746,57.5136 144.1066,60.8816 141.0156,63.4676 C140.3586,63.8306 139.6556,63.9596 138.9116,63.8996 C136.4186,63.4256 134.8006,61.6406 133.4456,59.7846 C129.2846,54.0836 124.4176,49.1426 118.6836,45.0266 C117.6716,44.3006 116.3356,43.5406 116.9916,41.8366 L116.9456,41.9206 C117.5776,41.1646 116.9846,40.1456 117.4896,39.3606 C118.1146,37.7816 120.0566,37.5316 120.8036,36.0726 L121.0896,35.7436 Z" id="Fill-28" fill="#9C9C9D"></path>
                        <path d="M148.9816,91.8811 C148.7026,91.8781 148.4236,91.8761 148.1436,91.8731 C147.6756,91.6761 147.3066,91.3591 147.0176,90.9441 C146.2746,89.1461 146.5376,87.1031 145.6596,85.3351 C145.5976,83.4521 145.1066,81.7041 143.9926,80.1541 C143.7076,79.5181 143.5386,78.8501 143.4626,78.1591 C143.7116,76.0611 143.0136,74.2201 141.8936,72.4941 C141.4256,71.6641 141.1716,70.7771 141.1536,69.8231 C141.4456,67.4471 141.9816,65.1651 143.7466,63.3801 C144.5756,62.5641 145.3116,61.5491 146.7236,61.9321 C152.2246,71.5081 154.7086,81.8761 154.8596,92.8591 C154.0386,94.2701 153.1916,95.7951 151.2846,95.6411 C148.9686,95.4531 150.2456,92.8441 148.9816,91.8811" id="Fill-30" fill="#C7C6C6"></path>
                        <path d="M32.888,95.8789 C32.562,95.8709 32.237,95.8619 31.911,95.8519 C31.25,94.7419 29.99,95.2639 29.087,94.8149 C26.155,91.7679 26.773,88.1119 27.36,84.4899 C28.314,78.6029 29.748,72.8309 32.192,67.3799 C32.664,66.3269 32.521,63.9749 34.971,64.9039 C35.605,64.8209 36.232,64.8249 36.847,65.0359 C37.846,65.4949 39.021,65.5109 39.92,66.2419 C40.278,66.5689 40.541,66.9559 40.715,67.4089 C40.953,71.7419 39.098,75.4769 37.347,79.2439 C35.051,83.5119 35.801,88.3129 34.98,92.8409 C34.489,93.9949 34.214,95.3019 32.888,95.8789" id="Fill-32" fill="#C6C5C5"></path>
                        <path d="M58.0017,42.6685 C58.3837,43.7885 59.1617,44.5295 60.2317,44.9885 C57.3807,50.7195 52.2157,54.1245 47.3417,57.8345 C43.9977,58.0255 40.6747,60.2745 37.2977,57.9705 C41.8167,49.9955 47.9057,43.5345 55.7907,38.8065 C56.2097,38.8375 56.6297,38.8675 57.0497,38.8985 C58.4887,39.8715 58.2497,41.2695 58.0017,42.6685" id="Fill-34" fill="#9C9C9C"></path>
                        <path d="M2.9904,85.0636 C2.9434,84.6356 2.8974,84.2076 2.8504,83.7786 C2.3204,82.1426 2.1504,80.5156 2.9614,78.9096 C3.2954,77.8836 3.6294,76.8566 3.9634,75.8306 C3.6434,73.2296 4.0454,70.8376 5.9644,68.8816 C7.9074,57.1276 13.6474,47.1156 20.3404,37.5396 C21.4534,37.1836 22.3224,35.5246 23.7594,36.8986 C24.4094,38.8966 22.7454,39.9926 21.8564,41.2416 C13.9404,52.3526 8.8184,64.6436 6.0004,77.9446 C5.4584,80.5076 5.0754,83.1486 2.9904,85.0636" id="Fill-36" fill="#C3C2C2"></path>
                        <path d="M21.7222,152.9697 C13.4562,145.2747 9.7752,135.0257 6.0322,124.8117 C6.6692,124.0607 6.8132,122.8507 8.0412,122.6477 C11.8282,132.9887 16.6042,142.8247 22.9872,151.8357 C23.2242,152.9497 22.7652,153.2847 21.7222,152.9697" id="Fill-38" fill="#C7C6C6"></path>
                        <path d="M37.2975,57.9709 C40.4915,57.4659 43.5955,56.2519 46.9175,56.7709 C46.9535,61.1729 44.3085,65.0749 40.0515,66.8989 C39.6835,66.8879 39.3155,66.8769 38.9465,66.8659 C38.6615,65.8599 37.7155,65.7589 36.9385,65.4139 C36.2265,64.9749 35.7975,64.2589 35.2015,63.7089 C34.2395,61.1899 36.1735,59.7279 37.2975,57.9709" id="Fill-40" fill="#C3C3C2"></path>
                        <path d="M128.9453,7.0203 C136.4433,10.0793 143.6093,13.7363 150.0403,18.7213 C148.5633,20.0493 147.1553,19.7753 145.6663,18.6613 C140.2113,14.5853 133.9913,11.8653 127.9823,8.7733 C127.5053,7.7503 128.1403,7.3383 128.9453,7.0203" id="Fill-42" fill="#9D9C9D"></path>
                        <path d="M161.9716,162.9004 C160.2116,164.4764 158.4506,166.0524 156.6906,167.6284 C155.7736,166.9474 154.6726,166.4144 153.9756,165.5544 C152.3196,163.5134 152.1346,161.1284 154.2586,159.4644 C156.0886,158.0294 158.2996,158.2574 159.9506,160.2364 C160.6646,161.0914 161.3006,162.0104 161.9716,162.9004" id="Fill-44" fill="#9C9C9C"></path>
                        <path d="M128.9453,7.0203 C128.6243,7.6043 128.3033,8.1883 127.9823,8.7733 C121.3983,6.9483 115.0483,4.2263 107.4453,3.6363 C108.9273,2.9253 109.8483,2.4833 110.7683,2.0413 C117.1003,2.7063 123.1803,4.2883 128.9453,7.0203" id="Fill-46" fill="#A1A0A0"></path>
                        <path d="M36.1107,124.6205 C34.3297,127.5855 36.4727,129.5485 38.0247,131.5245 C41.8777,136.4325 45.8627,141.2365 49.7947,146.0825 C42.6747,142.0805 38.9577,135.0315 34.3547,128.7845 C33.3117,127.3685 33.9577,125.9325 34.6727,124.5725 C35.1637,124.2515 35.6417,124.2955 36.1107,124.6205" id="Fill-48" fill="#8B898A"></path>
                        <path d="M159.9475,26.8694 C161.4185,27.3544 162.3265,28.4514 163.0615,29.7364 C162.0635,32.6234 166.7685,33.2484 165.5955,36.6214 C162.2825,34.4394 159.8415,31.5944 157.8375,28.6174 C156.1665,26.1364 158.8935,27.0974 159.9475,26.8694" id="Fill-50" fill="#8F8E8E"></path>
                        <path d="M146.724,61.9321 C146.138,62.5791 145.551,63.2271 144.965,63.8741 C143.815,63.0901 141.795,65.5131 141.158,62.8411 C141.927,60.2091 138.263,57.1181 141.992,54.7931 C144.414,56.6121 145.445,59.3551 146.724,61.9321" id="Fill-52" fill="#C0C0BF"></path>
                        <path d="M185.9814,94.7615 C183.8154,94.9765 181.4114,95.4005 180.6024,92.6435 C179.9914,90.5625 180.7734,88.7785 183.0134,87.9525 C183.6034,88.1915 184.2334,88.3635 184.6374,88.9195 C184.8794,89.2805 185.0534,89.6745 185.1854,90.0865 C185.1674,91.2625 186.2354,91.9285 186.5494,92.9515 C186.6724,93.6525 186.5144,94.2665 185.9814,94.7615" id="Fill-54" fill="#959495"></path>
                        <path d="M140.0677,122.8864 C140.4627,125.7784 141.9447,127.6084 144.9827,127.9194 C144.9337,128.2574 144.8857,128.5954 144.8367,128.9334 C141.0907,131.5904 140.2917,127.2514 138.1437,126.1144 C136.9107,123.9214 137.6357,122.8954 140.0677,122.8864" id="Fill-56" fill="#A5A5A6"></path>
                        <path d="M21.7222,152.9697 C22.1442,152.5917 22.5652,152.2137 22.9872,151.8357 C25.2282,153.8187 26.6282,156.2107 26.6112,159.2907 C23.4102,158.3997 22.6542,155.6167 21.7222,152.9697" id="Fill-58" fill="#BCBBBB"></path>
                        <path d="M148.9816,91.8811 C150.8696,92.6331 152.2046,96.7161 154.8596,92.8591 C154.8446,93.5541 154.8296,94.2481 154.8146,94.9431 C150.2856,97.8501 149.3016,97.3331 148.9816,91.8811" id="Fill-60" fill="#A1A1A1"></path>
                        <path d="M23.7598,36.8991 C22.6198,37.1131 21.4798,37.3261 20.3398,37.5401 C21.4558,35.7081 22.9178,34.3281 25.1018,33.8891 C26.5688,35.7451 25.7248,36.5721 23.7598,36.8991" id="Fill-62" fill="#757171"></path>
                        <path d="M185.9814,94.7615 C185.9464,94.0645 185.9124,93.3675 185.8774,92.6695 C185.5484,91.6885 185.9854,90.9935 186.7184,90.4065 C187.3234,90.0965 187.9534,90.0325 188.6074,90.2215 C189.2394,90.5255 189.5064,91.0975 189.7024,91.7215 C189.8764,92.6055 190.0184,93.4785 188.9074,93.8925 C187.9614,94.2825 187.2054,95.3075 185.9814,94.7615" id="Fill-64" fill="#9F9F9F"></path>
                        <path d="M36.1107,124.6205 C35.6287,124.6055 35.1477,124.5905 34.6697,124.5735 C31.7957,124.7335 31.9197,122.8275 32.1197,120.8675 C32.9417,122.6585 36.5267,121.5125 36.1107,124.6205" id="Fill-66" fill="#AEAEAE"></path>
                        <path d="M104.9825,7.7041 C102.9425,7.4101 100.9025,7.1151 98.8625,6.8211 C100.9835,5.7281 103.0165,5.6491 104.9865,6.8091 C105.6245,7.1101 105.6225,7.4081 104.9825,7.7041" id="Fill-68" fill="#969595"></path>
                        <path d="M109.8968,7.0914 C111.7478,7.5144 113.5988,7.9364 115.4498,8.3594 C115.3838,8.7794 115.3168,9.1994 115.2498,9.6194 C113.1488,8.7894 110.8768,9.4314 108.8508,7.9504 C109.0688,7.5054 109.4118,7.2114 109.8968,7.0914" id="Fill-70" fill="#919090"></path>
                        <path d="M189.0654,90.8078 C188.3224,90.8378 187.5784,90.8678 186.8354,90.8978 C185.5894,91.4148 184.7074,90.8828 183.9774,89.9088 C183.9724,89.5808 183.9694,89.2528 183.9684,88.9248 C184.4274,88.1238 185.1924,87.8778 186.0404,87.7838 C187.0174,88.1578 187.9944,88.5308 188.9714,88.9038 C189.5484,89.5118 189.5144,90.1498 189.0654,90.8078" id="Fill-72" fill="#949394"></path>
                        <path d="M86.927,1.8978 C87.563,1.8738 88.2,1.8498 88.836,1.8258 C88.367,4.6848 86.352,5.0358 83.985,4.8178 C83.607,4.5408 83.487,4.1778 83.625,3.7288 C84.434,2.5948 86.024,2.8658 86.927,1.8978" id="Fill-74" fill="#9A9999"></path>
                        <path d="M128.1292,13.6727 C129.8982,12.8657 130.8032,13.6457 131.8292,14.9437 C129.9942,15.7687 129.0282,15.1497 128.1292,13.6727" id="Fill-76" fill="#848383"></path>
                        <path d="M8.0411,122.6482 C7.7491,123.7202 6.9951,124.3642 6.0311,124.8112 C5.7271,123.4592 5.4221,122.1082 5.1171,120.7562 C5.6531,122.0642 8.4301,119.9092 8.0411,122.6482" id="Fill-78" fill="#A8A7A7"></path>
                        <path d="M189.0654,90.8078 C189.0344,90.1728 189.0024,89.5388 188.9714,88.9038 C189.0094,87.1898 189.0464,85.4758 189.0844,83.7628 C190.0584,86.3558 190.2404,89.0108 189.7024,91.7218 C189.4904,91.4168 189.2774,91.1128 189.0654,90.8078" id="Fill-80" fill="#807D7D"></path>
                        <path d="M121.9855,11.7387 C120.4835,11.2337 118.7825,11.2027 116.6105,8.9897 C119.2325,9.4087 120.7325,9.4977 121.9995,10.7617 C122.6285,11.0967 122.6235,11.4227 121.9855,11.7387" id="Fill-82" fill="#919090"></path>
                        <path d="M29.0869,94.8148 C30.7899,93.0868 31.8079,93.2258 31.9119,95.8518 C30.8899,95.8348 29.8679,95.8168 28.8469,95.7998 C28.9269,95.4708 29.0069,95.1428 29.0869,94.8148" id="Fill-84" fill="#A2A2A2"></path>
                        <path d="M35.2019,63.7093 C36.3339,63.1923 37.6509,62.3573 37.0639,64.7933 C37.2699,65.7913 36.9039,66.2553 35.8579,66.0823 C35.5619,65.6893 35.2669,65.2963 34.9709,64.9033 C35.0479,64.5053 35.1249,64.1073 35.2019,63.7093" id="Fill-86" fill="#8C8B8B"></path>
                        <path d="M137.813,18.5585 C136.126,18.8665 134.773,17.9815 134.803,17.5495 C134.918,15.8855 136.058,16.6035 136.846,17.1195 C137.21,17.3575 137.381,17.8915 137.813,18.5585" id="Fill-88" fill="#888686"></path>
                        <path d="M27.1842,30.9627 C27.4662,30.3127 27.0432,29.3507 28.0452,29.0207 C28.5082,29.9997 30.1332,30.8377 29.4782,31.8017 C28.7872,32.8187 27.9792,31.2827 27.1842,30.9627" id="Fill-90" fill="#5B5A5A"></path>
                        <path d="M186.0402,87.7841 C185.6212,88.6581 184.7752,88.7551 183.9682,88.9241 C183.6502,88.6001 183.3322,88.2761 183.0132,87.9521 C184.0082,87.6331 184.9632,86.6091 186.0402,87.7841" id="Fill-92" fill="#C4C3C3"></path>
                        <path d="M84.113,3.5984 C84.07,4.0044 84.028,4.4114 83.985,4.8174 C82.448,4.5434 81.925,3.4554 81.776,2.0664 C82.476,1.9144 83.175,1.7624 83.875,1.6104 C83.999,1.7964 84.098,1.9964 84.17,2.2094 C84.37,2.6814 84.361,3.1444 84.113,3.5984" id="Fill-94" fill="#A1A1A1"></path>
                        <path d="M121.9855,11.7387 C121.9905,11.4127 121.9955,11.0877 121.9995,10.7617 C123.3805,10.8647 124.7555,10.9807 125.5525,12.4597 C124.0735,13.3517 123.1745,11.8417 121.9855,11.7387" id="Fill-96" fill="#9C9A9A"></path>
                        <path d="M109.8968,7.0914 C109.5478,7.3774 109.1998,7.6644 108.8508,7.9504 C107.5618,7.8684 106.2718,7.7864 104.9828,7.7044 C104.9898,7.4054 104.9908,7.1074 104.9868,6.8084 C106.6228,6.9034 108.2598,6.9974 109.8968,7.0914" id="Fill-98" fill="#9D9D9D"></path>
                        <path d="M5.9639,68.8814 C5.2969,71.1974 4.6309,73.5144 3.9639,75.8304 C2.6469,72.9434 3.0619,70.5544 5.9639,68.8814" id="Fill-100" fill="#858181"></path>
                        <path d="M2.9611,78.9098 C2.9241,80.5328 2.8871,82.1558 2.8501,83.7788 C2.5051,83.8048 2.1601,83.8308 1.8161,83.8568 C2.1591,82.1988 1.1891,80.2368 2.9611,78.9098" id="Fill-102" fill="#656262"></path>
                        <path d="M84.113,3.5984 C84.132,3.1354 84.151,2.6724 84.17,2.2094 C85.067,1.9134 85.938,1.3864 86.927,1.8974 C86.375,3.1034 85.516,3.8004 84.113,3.5984" id="Fill-104" fill="#383838"></path>
                        <path d="M34.0763,102.982 C34.0913,102.559 34.1053,102.136 34.1203,101.713 C35.1043,99.88 33.7923,97.843 34.6293,95.996 C36.2613,94.818 37.3533,96.335 38.6603,96.793 C41.3143,98.777 41.6953,101.818 42.1923,104.733 C43.7473,113.863 48.5513,121.215 54.2493,128.277 C59.1523,134.352 64.9753,135.94 72.1763,133.716 C74.1113,133.67 75.9223,134.37 77.8073,134.633 C80.3963,136.041 83.6493,135.28 86.1033,137.136 C88.2913,137.497 90.4713,137.583 92.6323,136.973 C93.4853,136.698 94.3223,136.372 95.1963,136.155 C97.4633,136.641 99.8003,135.347 102.0503,136.404 C103.8813,138.202 104.3683,140.507 104.5093,142.945 C104.4233,143.438 104.1703,143.825 103.7563,144.107 C96.9273,145.422 90.1203,146.92 83.1253,145.06 C81.8843,144.73 80.5893,144.937 79.2863,145.57 C75.7323,147.294 72.5613,146.701 70.6343,143.047 C69.5823,141.052 67.8863,140.722 66.1113,140.566 C63.5803,140.343 65.0993,142.381 64.7353,143.384 C63.8703,145.773 62.3573,144.612 61.1793,143.868 C49.7413,136.65 42.4113,126.08 37.0273,113.966 C36.5063,112.793 36.2893,111.485 35.9313,110.24 C35.2953,107.825 35.3313,105.239 34.0763,102.982" id="Fill-106" fill="#9D9D9E"></path>
                        <path d="M140.0677,122.8864 C138.6537,123.5004 137.9537,124.5404 138.1437,126.1124 C131.6387,133.3144 125.5397,140.9484 116.9787,145.9544 C116.2437,147.0594 115.4227,147.9154 113.9867,146.9844 C108.9607,151.7704 106.4417,147.6454 103.7567,144.1064 C103.7567,144.1074 104.0787,143.7494 104.0787,143.7494 C104.9287,141.9194 106.6277,141.2474 108.3467,140.5684 C120.5957,135.7324 129.8397,127.6084 135.6757,115.7004 C136.9027,113.1954 137.8517,110.4344 140.4537,108.8534 C142.1997,108.3094 143.9967,107.5694 145.0587,109.9344 C144.3877,114.6344 141.6297,118.5294 140.0677,122.8864" id="Fill-108" fill="#9C9C9D"></path>
                        <path d="M95.5367,152.5986 L84.6157,152.5986 C84.6077,152.4746 84.6007,152.3506 84.5927,152.2276 L95.5217,152.2276 C95.5267,152.3506 95.5317,152.4746 95.5367,152.5986" id="Fill-110" fill="#BFBFBE"></path>
                        <path d="M116.9574,147.9046 C115.7944,150.3316 120.3214,150.4846 118.9854,152.9826 C117.9854,152.6126 116.9864,152.2426 115.9864,151.8716 C115.5264,150.3576 114.3164,148.6596 116.9574,147.9046" id="Fill-112" fill="#A6A6A6"></path>
                        <path d="M34.0763,102.982 C36.3223,104.983 36.0153,107.638 35.9313,110.237 C34.5623,108.013 34.3353,105.493 34.0763,102.982" id="Fill-114" fill="#898888"></path>
                        <path d="M116.9574,147.9046 C115.5894,148.9716 116.0054,150.4746 115.9864,151.8716 C115.3194,150.2426 114.6534,148.6126 113.9864,146.9836 C114.9844,146.6406 115.9814,146.2966 116.9784,145.9536 C116.9714,146.6046 116.9644,147.2546 116.9574,147.9046" id="Fill-116" fill="#C3C2C2"></path>
                        <path d="M58.5164,148.3665 C57.6134,148.6255 57.2004,148.8515 56.7964,148.8355 C56.1884,148.8115 55.4334,148.7215 55.5134,147.8635 C55.5324,147.6585 56.2324,147.3175 56.5454,147.3835 C57.0974,147.4995 57.5914,147.8825 58.5164,148.3665" id="Fill-118" fill="#A1A1A1"></path>
                        <path d="M35.0448,95.9512 C34.6958,97.8662 35.5748,99.9782 34.1198,101.7132 C34.0318,100.4702 33.9428,99.2272 33.8548,97.9842 C33.4218,97.3122 33.4388,96.6112 33.7248,95.8942 C34.1768,95.6142 34.6168,95.6482 35.0448,95.9512" id="Fill-120" fill="#8B8A8A"></path>
                        <path d="M34.0509,95.8467 C33.9859,96.5587 33.9209,97.2707 33.8549,97.9837 C33.5329,97.2827 33.2109,96.5807 32.8889,95.8787 C32.9709,94.7667 32.9039,93.6087 33.8419,92.7587 C34.0289,92.9067 34.2169,93.0557 34.4049,93.2037 C34.9449,94.1727 34.7099,95.0377 34.0509,95.8467" id="Fill-122" fill="#9D9D9E"></path>
                        <path d="M140.8533,109.8247 C138.7083,112.0197 138.1933,115.0727 136.7503,117.6267 C129.3643,130.6917 118.9613,140.0357 104.0783,143.7497 C102.9693,141.6767 101.5503,139.6867 102.2743,137.1157 C102.5543,135.6287 103.6713,134.8667 104.9423,134.5457 C109.4813,133.3987 113.1113,130.6217 116.8893,128.0997 C118.5183,126.8177 120.0143,125.4047 121.2113,123.6977 C126.6003,118.4667 129.5513,111.8837 131.6733,104.8407 C132.1473,103.7847 132.3803,102.6507 132.7033,101.5467 C133.2803,100.2217 133.3703,98.8447 133.1463,97.4297 C134.4273,71.4867 115.0783,56.0557 98.9033,52.8207 C76.2003,48.2787 53.4433,63.5437 48.8803,86.3207 C47.3893,93.7587 48.6523,100.8167 50.2143,107.9537 C53.4803,118.4087 60.5273,125.7897 69.4843,131.6147 C70.5173,132.5457 71.8753,133.2247 72.0273,134.8477 C62.3423,137.8507 58.0093,136.2247 50.6283,126.6567 C44.9193,119.2557 40.6653,111.2087 39.9303,101.6627 C39.8143,100.1577 39.4353,98.7337 38.1713,97.7247 C37.2313,97.4577 36.6063,96.8897 36.4223,95.8987 C34.4463,90.2707 34.0523,84.6007 35.9733,78.8707 C37.3323,74.8807 38.6923,70.8897 40.0513,66.8987 C42.3403,63.5227 44.6283,60.1467 46.9173,56.7707 C51.5263,53.0367 54.9903,48.0097 60.2313,44.9887 C66.7823,41.3407 73.5023,38.0557 80.9943,36.9097 C92.0513,35.2187 102.8443,36.2367 113.2393,40.5917 C114.4513,41.0997 115.7393,41.4257 116.9913,41.8367 C122.1983,44.7427 126.1553,49.1737 130.4633,53.1367 C133.6183,56.0387 135.1013,60.4957 138.9303,62.8877 C141.1213,64.7047 142.5123,66.8697 141.9703,69.8757 C142.2313,70.5337 142.4923,71.1917 142.7533,71.8497 C143.5413,73.8717 143.9713,76.0167 144.8623,78.0037 C144.9513,78.6147 145.0403,79.2267 145.1283,79.8377 C145.9133,81.2587 145.9993,82.8107 145.9903,84.3797 C146.4443,86.5607 147.2933,88.6847 146.9823,90.9797 C147.6423,93.2497 147.1743,95.5767 147.3073,97.8747 C147.3353,99.7107 145.6353,101.0827 145.9303,102.9917 C145.4923,106.2017 142.9703,107.8627 140.8533,109.8247" id="Fill-124" fill="#383838"></path>
                        <path d="M58.0017,42.6685 C56.8157,41.6315 57.0437,40.2365 57.0487,38.8975 C59.2837,37.4885 61.1157,38.3805 61.5037,40.5735 C61.9647,43.1755 59.1957,41.9405 58.0017,42.6685" id="Fill-126" fill="#B3B2B2"></path>
                        <path d="M120.8031,36.0728 C122.6311,39.0418 119.1741,38.5518 118.3671,39.7958 C117.1191,39.7658 116.6561,39.1338 116.9381,37.9308 C117.7271,36.2728 118.9781,35.5748 120.8031,36.0728" id="Fill-128" fill="#BFBFBF"></path>
                        <path d="M86.7489,30.1716 C87.9159,28.6026 89.6289,28.3756 90.2309,30.1336 C91.0979,32.6676 87.9769,31.7106 87.0599,32.8446 C86.0529,32.0586 86.2679,31.1306 86.7489,30.1716" id="Fill-130" fill="#BABABA"></path>
                        <path d="M86.7489,30.1716 C86.8529,31.0626 86.9559,31.9536 87.0599,32.8446 C86.4719,33.4446 85.6999,33.9476 85.2279,32.9476 C84.5529,31.5146 85.3339,30.6036 86.7489,30.1716" id="Fill-132" fill="#5E5C5C"></path>
                        <path d="M116.9381,37.9312 C117.4141,38.5532 117.8901,39.1742 118.3671,39.7962 C118.0871,40.6342 118.0811,41.6552 116.9461,41.9202 C116.6201,40.5912 114.7301,39.2652 116.9381,37.9312" id="Fill-134" fill="#4D4B4B"></path>
                        <path d="M140.8533,109.8247 C140.9083,106.6997 143.6933,105.2307 145.0553,102.8997 C145.6163,102.2897 146.2043,102.2777 146.8183,102.8167 C147.3603,105.4687 145.8053,107.6007 145.0583,109.9337 C143.6803,109.0227 142.2573,109.7887 140.8533,109.8247" id="Fill-136" fill="#959494"></path>
                        <path d="M146.8179,102.8169 C146.2309,102.8449 145.6429,102.8719 145.0559,102.8999 C144.8099,100.9249 146.0009,99.4499 146.8169,97.8449 C147.1289,97.5599 147.4569,97.5419 147.7989,97.7899 C148.2369,99.6149 147.3569,101.1829 146.8179,102.8169" id="Fill-138" fill="#858383"></path>
                        <path d="M147.799,97.7899 L147.31,97.8459 C147.31,97.8459 146.818,97.8449 146.817,97.8449 C145.72,95.8719 147.555,93.5929 146.167,91.6509 C146.589,91.0869 146.867,90.1509 147.839,90.9999 C147.918,91.2989 148.02,91.5899 148.144,91.8729 L147.799,97.7899 Z" id="Fill-140" fill="#615E5E"></path>
                        <path d="M141.9705,69.8755 C140.7345,67.6435 139.2265,65.5295 138.9305,62.8885 C139.6715,62.8725 140.4125,62.8575 141.1555,62.8415 C142.0545,64.5575 145.0485,58.5445 144.9655,63.8745 C143.2295,65.5065 143.1375,67.9595 141.9705,69.8755" id="Fill-142" fill="#9A9A9A"></path>
                        <path d="M147.8395,91.0003 C147.2815,91.2173 146.7245,91.4343 146.1665,91.6513 C145.8355,89.3813 145.5035,87.1123 145.1725,84.8423 C145.7715,84.2753 146.3525,84.2923 146.9155,84.8973 C148.2195,86.7803 147.9515,88.9023 147.8395,91.0003" id="Fill-144" fill="#918F90"></path>
                        <path d="M144.862,78.0034 C142.544,76.5054 142.073,74.3754 142.753,71.8494 C145.118,73.3314 144.927,75.6884 144.862,78.0034" id="Fill-146" fill="#979696"></path>
                        <path d="M146.9151,84.897 C146.3341,84.879 145.7531,84.861 145.1721,84.843 C145.1581,83.174 145.1431,81.506 145.1291,79.838 C147.1631,81.016 147.0491,82.953 146.9151,84.897" id="Fill-148" fill="#9E9D9D"></path>
                        <path d="M35.9733,78.8708 C33.4363,84.6858 37.9023,90.0978 36.9483,95.8218 C35.3303,95.6048 34.4273,94.6478 34.1113,93.0828 C34.1113,93.0828 33.8433,92.7598 33.8423,92.7588 C33.8073,88.0148 33.3663,83.2088 35.9733,78.8708" id="Fill-150" fill="#9D9C9C"></path>
                        <path d="M35.8581,66.0823 C36.2601,65.6523 36.6611,65.2233 37.0631,64.7933 C38.2711,64.9573 40.0391,64.6123 38.9471,66.8663 C37.8431,66.8963 36.7641,66.8313 35.8581,66.0823" id="Fill-152" fill="#A0A0A0"></path>
                        <path d="M156.5627,163.8 C156.2267,163.446 155.4907,163.012 155.4887,162.575 C155.4867,162.12 156.1947,161.662 156.5917,161.205 C156.9547,161.527 157.4537,161.782 157.6507,162.185 C158.0177,162.938 157.5367,163.407 156.5627,163.8" id="Fill-154" fill="#4D4B4B"></path>
                        <path d="M183.9774,89.909 C184.9304,90.239 185.8824,90.568 186.8354,90.898 C186.5154,91.489 186.1964,92.08 185.8774,92.67 C183.7224,92.797 182.8724,92.025 183.9774,89.909" id="Fill-156" fill="#504E4E"></path>
                        <path d="M133.3535,105.0337 C131.2245,112.5647 128.4075,119.7107 122.2025,124.9607 C119.7695,125.3897 118.7895,127.9357 116.6405,128.7877 C111.9305,129.6697 107.1935,127.4087 102.4925,128.9287 C100.7175,129.4697 99.0535,128.7327 97.3525,128.4747 C95.7835,128.4457 94.3085,128.8547 92.8945,129.5127 C90.0545,131.6657 88.9255,135.0747 86.8035,137.7447 C86.2645,138.1867 85.6035,138.4187 85.0125,138.7747 C83.5455,135.5377 79.3915,139.1467 77.8965,135.9817 C76.1205,133.3187 78.8085,131.9867 80.0315,130.1577 C78.6345,129.9337 77.7735,130.6117 76.8105,130.6427 C75.9035,130.8107 75.5895,131.5907 75.1735,132.2727 C73.3225,134.5717 71.0025,132.6837 68.9265,132.9797 C59.4845,127.2847 52.2035,119.8217 49.1925,108.8637 C48.7845,104.1647 51.7765,102.8697 55.5295,101.0027 C62.8385,97.3687 68.4855,101.2267 74.6095,103.5907 C76.9215,104.4827 77.0795,106.4377 76.8615,108.4957 C76.8715,108.7557 76.8285,109.0427 76.7465,109.3227 C76.8915,109.0907 76.9595,108.8207 76.9505,108.4767 C76.3335,103.3917 81.1315,101.3597 83.0275,97.7037 C83.4275,96.9317 85.1655,96.7437 85.7475,97.4977 C87.5745,99.8637 91.0255,100.3037 92.3045,103.2077 C92.4825,103.7437 91.3695,104.3967 92.4495,104.8597 C92.7825,104.8767 93.0775,104.8087 93.3485,104.6077 C93.9075,104.0917 94.4375,103.5577 95.1725,103.3027 C99.7395,101.9217 105.0675,103.0477 108.8025,98.8857 C109.7875,97.7867 111.4465,97.6907 112.9435,98.3237 C113.3425,98.5447 113.6965,98.8287 114.0155,99.1487 C115.8405,101.6187 120.4135,99.4027 121.3385,103.3987 C121.3955,103.7007 120.9665,103.9357 121.1485,104.2177 C121.1925,104.2867 121.6345,104.0517 121.8855,103.8887 C125.7435,104.0077 129.8125,101.9087 133.3535,105.0337" id="Fill-158" fill="#C3C2C2"></path>
                        <path d="M101.9674,127.8753 C106.9674,126.1473 111.9684,126.4383 116.9684,127.8743 C117.3814,128.1793 117.9844,128.2823 118.0844,128.9213 C113.5544,133.0803 108.1364,135.5253 102.2744,137.1153 C99.8384,137.1343 97.3564,138.7193 94.9744,136.9003 C94.6704,136.6793 94.5664,136.3873 94.6564,136.0343 C94.8974,134.7673 93.5154,135.2563 93.1204,134.6543 C90.4644,132.7723 90.1044,130.5073 91.9674,127.8713 C93.4064,126.3993 95.2634,127.0213 96.9674,126.8743 C97.6564,127.5693 98.2644,128.3213 98.8354,129.1253 C101.5264,132.9163 101.2924,129.2313 101.9674,127.8753" id="Fill-160" fill="#C1C0C0"></path>
                        <path d="M68.9265,132.9801 C70.6445,131.0071 73.0925,133.0131 74.9625,131.8731 C75.5905,131.3521 75.1505,130.2941 75.9715,129.8711 C76.8205,129.7041 77.5055,129.3361 77.9155,128.5081 C79.0445,126.2291 80.6935,126.9561 81.9625,128.1341 C83.6345,129.6881 82.6285,131.7241 81.2175,132.2531 C79.2225,133.0001 78.3195,134.1231 77.8965,135.9801 C75.9395,135.6031 73.9835,135.2251 72.0265,134.8471 C70.9935,134.2251 69.9595,133.6021 68.9265,132.9801" id="Fill-162" fill="#BFBFBE"></path>
                        <path d="M91.9671,127.8709 C90.8951,130.4829 92.7841,132.0859 94.0231,133.9109 C94.4831,134.5219 94.8331,135.1849 94.9731,135.9459 C94.9721,136.2639 94.9721,136.5819 94.9751,136.8999 C94.8991,137.6939 94.7351,138.4379 93.9101,138.8149 C91.3731,137.5929 88.4981,139.1929 85.9731,137.8659 C86.4241,133.6059 89.2461,130.7689 91.9671,127.8709" id="Fill-164" fill="#BEBEBE"></path>
                        <path d="M85.9733,137.8655 C88.6143,138.2245 91.4393,137.0425 93.9113,138.8155 C90.9443,138.8015 87.9773,138.7885 85.0123,138.7755 C85.3323,138.4715 85.6533,138.1685 85.9733,137.8655" id="Fill-166" fill="#C7C7C6"></path>
                        <path d="M34.1111,93.083 C35.0571,93.996 36.0021,94.909 36.9481,95.821 C37.3561,96.456 37.7631,97.09 38.1711,97.725 C36.5511,98.152 36.0071,96.681 35.0441,95.95 C34.7131,95.917 34.3811,95.882 34.0501,95.847 C34.0711,94.925 34.0911,94.004 34.1111,93.083" id="Fill-168" fill="#858484"></path>
                        <path d="M120.9646,103.8775 C119.8636,101.1845 117.3326,102.2915 115.5086,102.1295 C113.7506,101.9725 112.7466,101.8755 112.9676,99.8775 C113.2266,99.6605 113.4076,99.3875 113.4126,99.0555 C113.4216,98.5085 113.2506,98.4465 112.9616,98.8705 C111.4596,99.8905 107.5436,98.4205 109.0806,102.6555 C109.1836,102.9395 108.1306,104.0505 107.9416,103.9735 C104.0036,102.3725 100.5856,103.8475 97.1356,105.5015 C97.0886,105.5245 96.1226,103.9315 94.9716,103.8715 C93.9706,104.6665 92.9706,104.7745 91.9716,103.8685 C91.0806,102.0445 89.6306,101.9555 87.7986,102.1865 C86.5726,102.3405 84.8526,102.0865 85.8826,99.9535 C86.2256,99.2455 86.2036,98.5175 85.4586,98.4015 C84.7286,98.2885 83.2396,98.8035 83.2446,98.8325 C83.9616,102.7905 79.6946,103.0985 78.4416,105.5175 C77.9516,106.4635 78.1056,107.7425 77.9656,108.8705 C77.3016,109.5025 76.6366,109.4035 75.9726,108.8695 C75.8386,103.3935 70.4516,104.5155 67.6576,102.4205 C62.5576,98.5965 57.6546,102.9645 52.6396,103.5345 C53.4816,104.9975 48.7526,104.2575 51.4646,106.9575 C52.7856,108.2735 50.4256,108.6805 49.1926,108.8635 C45.2386,99.4185 45.3996,89.8245 48.6416,80.3105 C55.8896,59.0395 77.3056,46.4675 99.5086,51.0335 C122.5736,55.7785 136.7686,76.6335 134.7946,97.8965 C134.2566,99.1715 134.5326,100.6085 133.9936,101.8835 C133.9576,102.9695 134.2826,104.1285 133.3536,105.0335 C129.2136,106.1225 125.1016,105.0755 120.9786,104.8685 C120.7196,104.6525 120.6306,104.4335 120.7126,104.2115 C120.7956,103.9885 120.8796,103.8775 120.9646,103.8775" id="Fill-170" fill="#C8C7C7"></path>
                        <path d="M118.0842,128.9217 C117.7122,128.5727 117.3402,128.2237 116.9682,127.8747 C118.1372,125.8677 119.5162,124.2417 122.2022,124.9607 C121.3442,126.8167 119.6762,127.8297 118.0842,128.9217" id="Fill-172" fill="#C4C4C4"></path>
                        <path d="M133.994,101.8831 C133.118,100.3251 134.002,99.1201 134.794,97.8961 C135.045,99.3291 135.018,100.7061 133.994,101.8831" id="Fill-174" fill="#BCBCBC"></path>
                        <path d="M87.9671,122.8747 C85.6691,123.5127 84.0051,126.1277 81.1481,125.0397 C80.2501,124.6977 78.9661,124.7527 78.8371,123.5247 C78.6951,122.1687 79.9341,121.9727 80.8851,121.9427 C82.9001,121.8787 83.8041,120.9637 84.0921,118.9547 C84.4741,116.2977 86.7381,117.0217 88.4551,116.8897 C90.5971,116.7237 92.0601,117.4037 91.9631,119.8847 C91.0211,121.4027 91.3331,124.5967 87.9671,122.8747" id="Fill-176" fill="#C1C0C0"></path>
                        <path d="M101.9674,127.8753 C102.2734,129.5753 105.7694,129.8633 104.2164,132.1393 C103.2374,133.5733 101.1284,132.7613 99.5154,132.8393 C96.7994,132.9713 97.5654,130.7593 97.2354,129.3323 C97.0504,128.5353 97.0504,127.6953 96.9674,126.8743 C98.6334,127.2083 100.3004,127.5413 101.9674,127.8753" id="Fill-178" fill="#BFBEBE"></path>
                        <path d="M87.9671,122.8747 C90.0821,122.9247 90.6841,120.9517 91.9631,119.8847 C91.8201,121.8987 94.8211,121.6317 94.6901,124.1197 C92.8381,123.7107 91.2181,124.5477 89.5131,125.1257 C86.5211,126.1407 87.4061,124.3687 87.9671,122.8747" id="Fill-180" fill="#BBBBBB"></path>
                        <path d="M75.9728,108.8698 C76.6368,108.8698 77.3018,108.8698 77.9658,108.8698 C78.3768,110.1388 79.6808,111.4968 77.7518,112.5758 C77.0128,112.9898 75.9698,112.8858 75.5798,112.1878 C74.9808,111.1138 73.4878,109.6738 75.9728,108.8698" id="Fill-182" fill="#C0C0C0"></path>
                        <path d="M101.9647,125.3037 C100.8427,125.5587 100.1837,125.1137 100.2577,124.1087 C100.3567,122.7537 101.3487,122.1207 102.6177,122.0197 C103.4497,121.9547 104.4387,122.0767 104.5507,123.0997 C104.7657,125.0567 102.9277,124.7747 101.9647,125.3037" id="Fill-184" fill="#C1C0C0"></path>
                        <path d="M87.3739,127.3423 C88.3659,127.8053 88.7809,128.4753 88.7279,129.3463 C88.6789,130.1513 88.0679,130.6053 87.4619,130.0553 C86.9369,129.5783 86.7149,128.7213 86.4989,127.9903 C86.4609,127.8613 87.1139,127.5283 87.3739,127.3423" id="Fill-186" fill="#BFBEBE"></path>
                        <path d="M64.951,124.8823 C63.969,124.7083 62.808,124.6203 62.754,123.3503 C62.738,122.9523 63.527,122.2673 64.046,122.1493 C65.323,121.8583 65.755,122.8083 65.971,123.8683 C65.851,124.4283 65.514,124.7683 64.951,124.8823" id="Fill-188" fill="#C0BFBF"></path>
                        <path d="M93.9726,105.8642 C93.8006,106.7122 94.2446,108.1172 92.9666,108.1162 C91.6906,108.1152 92.1326,106.7112 91.9596,105.8622 C91.7876,104.8602 92.2806,104.4172 93.2156,104.5342 C93.9526,104.6272 94.1546,105.1722 93.9726,105.8642" id="Fill-190" fill="#C7C6C6"></path>
                        <path d="M64.951,124.8823 C65.291,124.5443 65.631,124.2063 65.971,123.8683 C67.303,124.2033 68.635,124.5393 69.967,124.8743 C70.221,125.0973 70.304,125.3183 70.217,125.5373 C70.129,125.7553 70.042,125.8643 69.956,125.8643 C68.288,125.5373 66.619,125.2093 64.951,124.8823" id="Fill-192" fill="#BBBABA"></path>
                        <path d="M93.9726,105.8642 C93.3026,105.0062 92.6316,105.0072 91.9606,105.8622 C91.5476,105.4032 91.1346,104.9442 90.7216,104.4852 C91.1376,104.2802 91.5546,104.0742 91.9716,103.8682 C92.9716,103.8692 93.9716,103.8702 94.9716,103.8712 C94.6386,104.5352 94.3056,105.2002 93.9726,105.8642" id="Fill-194" fill="#BCBCBB"></path>
                        <path d="M75.972,129.871 C75.598,130.519 76.79,131.957 74.963,131.873 C74.612,130.857 73.581,129.724 74.887,128.84 C75.749,128.257 75.821,129.282 75.972,129.871" id="Fill-196" fill="#BCBBBB"></path>
                        <path d="M69.9559,125.8645 C69.9609,125.5345 69.9649,125.2045 69.9669,124.8745 C71.1739,125.0365 72.0469,125.5905 72.1699,126.8985 C72.1839,127.0505 71.6369,127.4185 71.5999,127.3875 C71.0279,126.9085 70.4969,126.3805 69.9559,125.8645" id="Fill-198" fill="#C7C7C7"></path>
                        <path d="M120.9646,103.8775 C120.9676,104.2075 120.9726,104.5385 120.9786,104.8685 C119.9296,106.0015 118.2676,105.5375 118.2766,104.6475 C118.2936,103.0885 120.0336,104.2065 120.9646,103.8775" id="Fill-200" fill="#BDBDBD"></path>
                        <path d="M59.6302,112.072 C59.1572,111.556 58.7782,111.283 58.5992,110.912 C58.3342,110.366 58.1612,109.66 59.0542,109.556 C59.2842,109.529 59.7262,110.12 59.8232,110.493 C59.9262,110.885 59.7342,111.355 59.6302,112.072" id="Fill-202" fill="#BDBCBC"></path>
                        <path d="M56.7288,116.0794 C56.3568,116.3034 55.8968,116.8054 55.5808,116.7264 C54.7898,116.5294 54.9788,115.7534 55.1868,115.2364 C55.3158,114.9174 55.8198,114.7494 56.1558,114.5124 C56.2998,114.9074 56.4448,115.3024 56.7288,116.0794" id="Fill-204" fill="#BEBEBE"></path>
                        <path d="M59.8971,120.8991 C59.8121,121.3141 59.8341,121.9661 59.1831,121.6701 C58.8381,121.5131 58.5441,120.9511 58.4901,120.5381 C58.4481,120.2141 58.8171,119.5291 58.9881,119.5341 C59.8111,119.5601 59.8401,120.2681 59.8971,120.8991" id="Fill-206" fill="#BDBCBC"></path>
                        <path d="M112.9619,98.8702 L111.9899,97.2622 C112.4339,97.2952 113.0589,97.1522 113.2899,97.3902 C114.1499,98.2782 113.7719,99.1352 112.9669,99.8772 C112.9659,99.5422 112.9639,99.2062 112.9619,98.8702" id="Fill-208" fill="#BEBEBD"></path>
                        <path d="M98.6037,122.5184 C98.6537,123.2874 98.8237,123.7804 98.6707,124.1364 C98.5107,124.5134 98.0437,124.7584 97.7097,125.0614 C97.6467,124.6504 97.4457,124.1964 97.5577,123.8414 C97.6837,123.4444 98.0937,123.1364 98.6037,122.5184" id="Fill-210" fill="#B9B8B8"></path>
                        <path d="M82.2227,115.2196 C82.0257,115.4456 81.7347,115.7806 81.4437,116.1166 C81.1617,115.8246 80.6127,115.4826 80.6567,115.2536 C80.7277,114.8806 81.1277,114.4276 81.4947,114.2876 C82.0507,114.0766 82.3297,114.4596 82.2227,115.2196" id="Fill-212" fill="#BBBBBB"></path>
                        <path d="M116.5229,109.3895 C116.9339,109.5485 117.2029,109.6535 117.4719,109.7575 C117.3119,110.1605 117.1729,110.5755 116.9599,110.9485 C116.9389,110.9855 116.2439,110.7585 116.2469,110.6685 C116.2629,110.2485 116.4139,109.8325 116.5229,109.3895" id="Fill-214" fill="#BEBDBD"></path>
                        <path d="M94.973,135.9462 C94.656,135.2672 94.339,134.5882 94.023,133.9102 C95.162,134.2792 96.3,134.6482 97.458,135.0232 C96.908,136.1812 95.818,135.7252 94.973,135.9462" id="Fill-216" fill="#A9A9A9"></path>
                        <path d="M106.1424,130.432 C106.5664,130.036 106.8404,129.78 107.1144,129.524 C107.3654,129.87 107.7684,130.194 107.8234,130.57 C107.8814,130.963 107.6054,131.406 107.4764,131.827 C107.0734,131.405 106.6694,130.984 106.1424,130.432" id="Fill-218" fill="#BBBABA"></path>
                    </g>
                </g>
                <rect id="Rectangle" fill="#000000" opacity="0.177332261" x="0" y="69" width="369" height="55" rx="8"></rect>
                <text id="bassministry" font-family="StencilStd, Stencil Std" font-size="41" font-weight="bold" fill="#FFFFFF">
                    <tspan x="22.271" y="112">bassministry</tspan>
                </text>
            </g>
        </g>
    </g>
</svg>